<?xml version="1.0" encoding="UTF-8" standalone="no"?>
<svg
   version="1.1"
   viewBox="0 0 307.72908 295.04927"
   fill="none"
   stroke="none"
   stroke-linecap="square"
   stroke-miterlimit="10"
   id="svg421"
   sodipodi:docname="Math-Girl-.svg"
   width="8.1419983cm"
   height="7.8065119cm"
   inkscape:version="1.1.1 (3bf5ae0d25, 2021-09-20)"
   xmlns:inkscape="http://www.inkscape.org/namespaces/inkscape"
   xmlns:sodipodi="http://sodipodi.sourceforge.net/DTD/sodipodi-0.dtd"
   xmlns="http://www.w3.org/2000/svg"
   xmlns:svg="http://www.w3.org/2000/svg"
   xmlns:rdf="http://www.w3.org/1999/02/22-rdf-syntax-ns#"
   xmlns:cc="http://creativecommons.org/ns#"
   xmlns:dc="http://purl.org/dc/elements/1.1/">
  <defs
     id="defs425" />
  <sodipodi:namedview
     id="namedview423"
     pagecolor="#505050"
     bordercolor="#ffffff"
     borderopacity="1"
     inkscape:pageshadow="0"
     inkscape:pageopacity="0"
     inkscape:pagecheckerboard="1"
     showgrid="false"
     units="cm"
     fit-margin-top="0"
     fit-margin-left="0"
     fit-margin-right="0"
     fit-margin-bottom="0"
     inkscape:zoom="1.3421488"
     inkscape:cx="314.79372"
     inkscape:cy="180.68042"
     inkscape:window-width="1920"
     inkscape:window-height="1001"
     inkscape:window-x="-9"
     inkscape:window-y="-9"
     inkscape:window-maximized="1"
     inkscape:current-layer="svg421"
     inkscape:document-units="cm" />
  <clipPath
     id="p.0">
    <path
       d="M 0,0 H 631 V 605 H 0 Z"
       clip-rule="nonzero"
       id="path2" />
  </clipPath>
  <g
     clip-path="url(#p.0)"
     id="g417"
     transform="scale(0.48768473)">
    <path
       fill="#000000"
       fill-opacity="0"
       d="M 0,0 H 631.3438 V 605.82153 H 0 Z"
       fill-rule="nonzero"
       id="path5" />
    <path
       fill="#ebf3bb"
       d="m -270.15552,321.4538 69.8302,-15.35019 19.42781,88.37982 -69.8302,15.35019 z"
       fill-rule="nonzero"
       id="path7" />
    <path
       fill="#000000"
       fill-opacity="0"
       d="m -242.79997,308.2674 62.94392,-3.83936 1.69204,27.94239 -62.94393,3.83935 z"
       fill-rule="nonzero"
       id="path9" />
    <path
       fill="#cc0000"
       d="m -226.91776,318.76364 q 0.12762,-0.47742 0.41924,-0.57346 0.30719,-0.097 0.71269,-0.12173 0.59265,-0.0362 1.39036,0.72919 0.81238,0.74881 1.6734,2.04254 0.87662,1.29278 1.77779,2.99106 0.91582,1.68173 1.77683,3.49203 0.86099,1.81033 1.62745,3.61075 0.76648,1.80041 1.34346,3.31497 0.59163,1.49802 0.91011,2.62134 0.33313,1.10678 0.35863,1.52786 0.0255,0.42111 -0.15364,0.8234 -0.16449,0.38574 -0.66356,0.41617 -0.31192,0.019 -0.55719,-0.15387 -0.23062,-0.18943 -0.40358,-0.46067 -0.1739,-0.2868 -0.33127,-0.55899 -0.14271,-0.28869 -0.2651,-0.50039 -0.11058,-0.27503 -0.50281,-1.06513 -0.37757,-0.80664 -0.79012,-1.67374 -0.39789,-0.88366 -0.77261,-1.64352 -0.36009,-0.7764 -0.50565,-1.11191 -1.8592,-0.19967 -3.73213,-0.36719 -1.87292,-0.16754 -3.94671,-0.2915 l -0.28074,0.0171 q -0.70484,4.12869 -1.29431,6.54407 -0.57386,2.41443 -0.9969,3.44208 -0.42303,1.02765 -0.71414,0.87323 -0.29112,-0.15445 -0.44704,-1.1781 -0.15684,-1.03925 -0.13692,-2.77808 0.019,-1.7544 0.21996,-3.86429 0.20097,-2.10992 0.53001,-4.43112 0.32906,-2.32123 0.87125,-4.48325 0.55682,-2.17856 1.27292,-4.05377 0.71515,-1.89078 1.61032,-3.1351 z m -0.0629,9.30234 q 0.0595,0.98257 0.71167,1.41241 0.66684,0.4133 1.5643,0.49945 0.91212,0.0696 1.89279,-0.0215 0.98065,-0.0911 1.69808,-0.13489 -0.0633,-1.04495 -0.48006,-2.24054 -0.41773,-1.21121 -1.02071,-2.37979 -0.60393,-1.18417 -1.26552,-2.28656 -0.66253,-1.11798 -1.21733,-2.00772 -0.26373,0.29785 -0.54402,1.09765 -0.2803,0.79981 -0.56485,1.78769 -0.26991,0.97138 -0.47932,1.90775 -0.19382,0.93539 -0.29924,1.52103 0.005,0.078 -0.006,0.423 0.004,0.32849 0.01,0.42206 z m 13.21388,5.75305 q -0.10918,0.007 -0.34169,-0.21399 -0.21785,-0.23715 -0.2722,-0.35907 -0.0331,-0.0293 -0.0378,-0.1073 -0.0184,-0.0458 -0.0232,-0.12381 -0.007,-0.10916 0.004,-0.18811 -0.003,-0.0468 0.0246,-0.11108 0.0997,-0.1626 0.2902,-0.37775 0.20512,-0.23166 0.2519,-0.2345 l 5.63018,-0.34344 q 0.0728,-1.38199 0.26574,-2.84958 0.19194,-1.48319 0.49874,-2.87946 l 0.31192,-0.019 0.29632,-0.0181 q 0.11295,0.0557 0.29018,0.13886 0.19281,0.0821 0.38469,0.14871 0.19188,0.0666 0.32231,0.15256 0.14508,0.0694 0.14697,0.10062 l 0.31922,5.27157 q 0.45228,-0.0276 1.11441,-0.20886 0.67679,-0.19782 1.31527,-0.25241 0.65409,-0.0555 1.1059,0.16736 0.46739,0.22195 0.51555,1.01736 0.0274,0.4523 -0.25476,0.70432 -0.28217,0.25201 -0.72688,0.40438 -0.44568,0.13675 -0.94193,0.21399 -0.49718,0.0617 -0.9594,0.18375 -0.44661,0.12119 -0.73065,0.34201 -0.26846,0.21988 -0.24673,0.57858 0.0387,0.63947 0.33784,1.18476 0.3138,0.52874 0.67342,1.03906 0.35869,0.49469 0.65782,1.04001 0.29819,0.52969 0.33595,1.15356 0.0718,1.18531 -1.11351,1.2576 -0.54587,0.0333 -1.01799,-0.26663 -0.4721,-0.29993 -0.86387,-0.82391 -0.37711,-0.54056 -0.69844,-1.1941 -0.3223,-0.66909 -0.56754,-1.35858 -0.22966,-0.69043 -0.37755,-1.32321 -0.13324,-0.64935 -0.22207,-1.08224 z"
       fill-rule="nonzero"
       id="path11" />
    <path
       fill="#000000"
       fill-opacity="0"
       d="m -260.92722,329.65613 14.64281,-3.21881"
       fill-rule="nonzero"
       id="path13" />
    <path
       stroke="#000000"
       stroke-width="2"
       stroke-linejoin="round"
       stroke-linecap="butt"
       d="m -260.92722,329.65613 14.64281,-3.21881"
       fill-rule="nonzero"
       id="path15" />
    <path
       fill="#000000"
       fill-opacity="0"
       d="m -259.36966,336.7417 6.82921,-1.50122"
       fill-rule="nonzero"
       id="path17" />
    <path
       stroke="#000000"
       stroke-width="2"
       stroke-linejoin="round"
       stroke-linecap="butt"
       d="m -259.36966,336.7417 6.82921,-1.50122"
       fill-rule="nonzero"
       id="path19" />
    <path
       fill="#000000"
       fill-opacity="0"
       d="m -258.13556,342.35577 16.61159,-3.65158"
       fill-rule="nonzero"
       id="path21" />
    <path
       stroke="#000000"
       stroke-width="2"
       stroke-linejoin="round"
       stroke-linecap="butt"
       d="m -258.13556,342.35577 16.61159,-3.65158"
       fill-rule="nonzero"
       id="path23" />
    <path
       fill="#000000"
       fill-opacity="0"
       d="m -253.1511,356.87653 48.85037,-10.7384"
       fill-rule="nonzero"
       id="path25" />
    <path
       stroke="#000000"
       stroke-width="2"
       stroke-linejoin="round"
       stroke-linecap="butt"
       d="m -253.1511,356.87653 48.85037,-10.7384"
       fill-rule="nonzero"
       id="path27" />
    <path
       fill="#000000"
       fill-opacity="0"
       d="m -251.39497,363.65506 53.71082,-11.80679"
       fill-rule="nonzero"
       id="path29" />
    <path
       stroke="#000000"
       stroke-width="2"
       stroke-linejoin="round"
       stroke-linecap="butt"
       d="m -251.39497,363.65506 53.71082,-11.80679"
       fill-rule="nonzero"
       id="path31" />
    <path
       fill="#000000"
       fill-opacity="0"
       d="m -250.10202,370.7961 52.265,-11.48898"
       fill-rule="nonzero"
       id="path33" />
    <path
       stroke="#000000"
       stroke-width="2"
       stroke-linejoin="round"
       stroke-linecap="butt"
       d="m -250.10202,370.7961 52.265,-11.48898"
       fill-rule="nonzero"
       id="path35" />
    <path
       fill="#000000"
       fill-opacity="0"
       d="m -247.72726,378.07828 50.89659,-10.67221"
       fill-rule="nonzero"
       id="path37" />
    <path
       stroke="#000000"
       stroke-width="2"
       stroke-linejoin="round"
       stroke-linecap="butt"
       d="m -247.72726,378.07828 50.89659,-10.67221"
       fill-rule="nonzero"
       id="path39" />
    <path
       fill="#000000"
       fill-opacity="0"
       d="m -246.92145,386.35297 54.69519,-12.02319"
       fill-rule="nonzero"
       id="path41" />
    <path
       stroke="#000000"
       stroke-width="2"
       stroke-linejoin="round"
       stroke-linecap="butt"
       d="m -246.92145,386.35297 54.69519,-12.02319"
       fill-rule="nonzero"
       id="path43" />
    <path
       fill="#000000"
       fill-opacity="0"
       d="m -244.48253,392.839 50.89659,-10.67221"
       fill-rule="nonzero"
       id="path45" />
    <path
       stroke="#000000"
       stroke-width="2"
       stroke-linejoin="round"
       stroke-linecap="butt"
       d="m -244.48253,392.839 50.89659,-10.67221"
       fill-rule="nonzero"
       id="path47" />
    <path
       fill="#000000"
       fill-opacity="0"
       d="m -243.86775,400.24466 54.69521,-12.02319"
       fill-rule="nonzero"
       id="path49" />
    <path
       stroke="#000000"
       stroke-width="2"
       stroke-linejoin="round"
       stroke-linecap="butt"
       d="m -243.86775,400.24466 54.69521,-12.02319"
       fill-rule="nonzero"
       id="path51" />
    <path
       fill="#ff8ca6"
       d="m -316.80054,319.4825 v 0 c 0,7.05093 -5.71588,12.76682 -12.76682,12.76682 h -13.67892 v 0 c -3.38599,0 -6.63327,-1.34507 -9.02753,-3.73932 -2.39425,-2.39423 -3.73932,-5.64154 -3.73932,-9.0275 v -16.95453 c 0,-7.05093 5.71592,-12.76681 12.76685,-12.76681 h 13.67893 c 7.05093,0 12.76681,5.71588 12.76681,12.76681 z"
       fill-rule="nonzero"
       id="path53" />
    <path
       fill="#cda916"
       d="m -356.00787,105.26247 h 12 V 297.7034 h -12 z"
       fill-rule="nonzero"
       id="path55" />
    <path
       fill="#f1c71a"
       d="m -344.44095,105.26247 h 16.97638 V 297.7034 h -16.97638 z"
       fill-rule="nonzero"
       id="path57" />
    <path
       fill="#ffd732"
       d="m -328.8084,105.26247 h 12 V 297.7034 h -12 z"
       fill-rule="nonzero"
       id="path59" />
    <path
       fill="#f3d79f"
       d="m -356.44095,105.26247 18.49759,-43.181103 21.18744,43.181103 z"
       fill-rule="nonzero"
       id="path61" />
    <path
       fill="#f3d79f"
       d="m -356.00787,111.14436 c 0.34415,0.4755 0.80405,-4.1413 2.56995,-4.02887 1.7659,0.11242 5.69973,4.7594 8.02551,4.70341 2.32574,-0.056 4.06842,-3.97594 5.92902,-5.03937 1.86059,-1.06343 3.19949,-2.40464 5.23458,-1.34121 2.0351,1.06343 4.99915,7.27428 6.97596,7.72178 1.97677,0.44751 3.14029,-4.42125 4.88473,-5.03674 1.74442,-0.61549 5.06491,2.40727 5.58179,1.34383 0.5169,-1.06343 -0.27094,-6.04505 -2.4805,-7.72441 -2.20957,-1.67935 -6.01538,-2.631665 -10.77695,-2.351704 -4.76153,0.279968 -13.55249,3.219594 -17.79233,4.031494 -4.23983,0.8119 -6.28808,-0.44707 -7.64669,0.8399 -1.35865,1.28696 -0.84922,6.40638 -0.50507,6.88189 z"
       fill-rule="nonzero"
       id="path63" />
    <path
       fill="#000000"
       d="m -343.66403,75.845146 5.87225,-13.763782 6.72617,13.763782 z"
       fill-rule="nonzero"
       id="path65" />
    <path
       fill="#b7b7b7"
       d="m -356.01312,295.38583 h 39.21258 v 13.76376 h -39.21258 z"
       fill-rule="nonzero"
       id="path67" />
    <path
       fill="#000000"
       fill-opacity="0"
       d="m -356.01312,305.35696 h 39.21258"
       fill-rule="nonzero"
       id="path69" />
    <path
       stroke="#666666"
       stroke-width="2"
       stroke-linejoin="round"
       stroke-linecap="butt"
       d="m -356.01312,305.35696 h 39.21258"
       fill-rule="nonzero"
       id="path71" />
    <path
       fill="#000000"
       fill-opacity="0"
       d="m -356.01312,299.29398 h 39.21258"
       fill-rule="nonzero"
       id="path73" />
    <path
       stroke="#666666"
       stroke-width="2"
       stroke-linejoin="round"
       stroke-linecap="butt"
       d="m -356.01312,299.29398 h 39.21258"
       fill-rule="nonzero"
       id="path75" />
    <path
       fill="#434343"
       d="m -202.24399,81.93509 h 52.35245 v 88.07631 h -52.35245 z"
       fill-rule="nonzero"
       id="path77" />
    <path
       stroke="#000000"
       stroke-width="2"
       stroke-linejoin="round"
       stroke-linecap="butt"
       d="m -202.24399,81.93509 h 52.35245 v 88.07631 h -52.35245 z"
       fill-rule="nonzero"
       id="path79" />
    <path
       fill="#cccccc"
       d="m -197.05806,86.943954 h 42.49468 v 35.952456 h -42.49468 z"
       fill-rule="nonzero"
       id="path81" />
    <path
       stroke="#000000"
       stroke-width="2"
       stroke-linejoin="round"
       stroke-linecap="butt"
       d="m -197.05806,86.943954 h 42.49468 v 35.952456 h -42.49468 z"
       fill-rule="nonzero"
       id="path83" />
    <path
       fill="#000000"
       d="m -196.00212,133.38686 h 5.77293 v 5.2392 h -5.77293 z"
       fill-rule="nonzero"
       id="path85" />
    <path
       fill="#000000"
       d="m -187.41565,133.38686 h 5.77293 v 5.2392 h -5.77293 z"
       fill-rule="nonzero"
       id="path87" />
    <path
       fill="#000000"
       d="m -178.8292,133.38686 h 5.77295 v 5.2392 h -5.77295 z"
       fill-rule="nonzero"
       id="path89" />
    <path
       fill="#000000"
       d="m -170.24272,133.38686 h 5.77295 v 5.2392 h -5.77295 z"
       fill-rule="nonzero"
       id="path91" />
    <path
       fill="#000000"
       d="m -161.65625,133.38686 h 5.77295 v 5.2392 h -5.77295 z"
       fill-rule="nonzero"
       id="path93" />
    <path
       fill="#f1c232"
       d="m -161.65625,125.52203 h 5.77295 v 5.2392 h -5.77295 z"
       fill-rule="nonzero"
       id="path95" />
    <path
       fill="#000000"
       d="m -170.20798,125.52203 h 5.77293 v 5.2392 h -5.77293 z"
       fill-rule="nonzero"
       id="path97" />
    <path
       fill="#000000"
       d="m -196.12804,142.09909 h 5.77293 v 5.2392 h -5.77293 z"
       fill-rule="nonzero"
       id="path99" />
    <path
       fill="#000000"
       d="m -187.54156,142.09909 h 5.77293 v 5.2392 h -5.77293 z"
       fill-rule="nonzero"
       id="path101" />
    <path
       fill="#000000"
       d="m -178.9551,142.09909 h 5.77293 v 5.2392 h -5.77293 z"
       fill-rule="nonzero"
       id="path103" />
    <path
       fill="#000000"
       d="m -170.36864,142.09909 h 5.77295 v 5.2392 h -5.77295 z"
       fill-rule="nonzero"
       id="path105" />
    <path
       fill="#000000"
       d="m -161.78217,142.09909 h 5.77295 v 5.2392 h -5.77295 z"
       fill-rule="nonzero"
       id="path107" />
    <path
       fill="#000000"
       d="m -196.00212,151.25479 h 5.77293 v 5.2392 h -5.77293 z"
       fill-rule="nonzero"
       id="path109" />
    <path
       fill="#000000"
       d="m -187.41565,151.25479 h 5.77293 v 5.2392 h -5.77293 z"
       fill-rule="nonzero"
       id="path111" />
    <path
       fill="#000000"
       d="m -178.8292,151.25479 h 5.77295 v 5.2392 h -5.77295 z"
       fill-rule="nonzero"
       id="path113" />
    <path
       fill="#000000"
       d="m -170.24272,151.25479 h 5.77295 v 5.2392 h -5.77295 z"
       fill-rule="nonzero"
       id="path115" />
    <path
       fill="#000000"
       d="m -161.65625,151.25479 h 5.77295 v 5.2392 h -5.77295 z"
       fill-rule="nonzero"
       id="path117" />
    <path
       fill="#6aa84f"
       d="m -196.12717,159.52441 h 5.77293 v 5.2392 h -5.77293 z"
       fill-rule="nonzero"
       id="path119" />
    <path
       fill="#3d85c6"
       d="m -187.5407,159.52441 h 5.77293 v 5.2392 h -5.77293 z"
       fill-rule="nonzero"
       id="path121" />
    <path
       fill="#000000"
       d="m -178.95422,159.52441 h 5.77293 v 5.2392 h -5.77293 z"
       fill-rule="nonzero"
       id="path123" />
    <path
       fill="#000000"
       d="m -170.36777,159.52441 h 5.77295 v 5.2392 h -5.77295 z"
       fill-rule="nonzero"
       id="path125" />
    <path
       fill="#000000"
       d="m -161.7813,159.52441 h 5.77295 v 5.2392 h -5.77295 z"
       fill-rule="nonzero"
       id="path127" />
    <path
       fill="#000000"
       fill-opacity="0"
       d="m -197.29427,116.57259 h 42.453"
       fill-rule="nonzero"
       id="path129" />
    <path
       stroke="#000000"
       stroke-width="2"
       stroke-linejoin="round"
       stroke-linecap="butt"
       d="m -197.29427,116.57259 h 42.453"
       fill-rule="nonzero"
       id="path131" />
    <path
       fill="#000000"
       fill-opacity="0"
       d="m -186.94673,87.54213 0.1042,35.29241"
       fill-rule="nonzero"
       id="path133" />
    <path
       stroke="#000000"
       stroke-width="2"
       stroke-linejoin="round"
       stroke-linecap="butt"
       d="m -186.94673,87.54213 0.1042,35.29241"
       fill-rule="nonzero"
       id="path135" />
    <path
       fill="#000000"
       fill-opacity="0"
       d="m -197.06674,103.37833 c 0.35689,0.89785 1.10486,3.64608 2.1414,5.38704 1.03655,1.74095 2.45865,3.8125 4.07788,5.05871 1.61922,1.2462 3.2483,2.10679 5.63747,2.41849 2.38919,0.31169 5.76657,0.25783 8.69763,-0.54833 2.93105,-0.80616 6.68502,-2.69409 8.88866,-4.28865 2.20364,-1.59456 3.28621,-3.04274 4.33318,-5.27874 1.04696,-2.236 1.56394,-5.75458 1.94862,-8.137256 0.38469,-2.382683 0.29959,-4.417564 0.35951,-6.158813 0.0599,-1.741242 0,-3.573876 0,-4.288651"
       fill-rule="nonzero"
       id="path137" />
    <path
       stroke="#000000"
       stroke-width="2"
       stroke-linejoin="round"
       stroke-linecap="butt"
       d="m -197.06674,103.37833 c 0.35689,0.89785 1.10486,3.64608 2.1414,5.38704 1.03655,1.74095 2.45865,3.8125 4.07788,5.05871 1.61922,1.2462 3.2483,2.10679 5.63747,2.41849 2.38919,0.31169 5.76657,0.25783 8.69763,-0.54833 2.93105,-0.80616 6.68502,-2.69409 8.88866,-4.28865 2.20364,-1.59456 3.28621,-3.04274 4.33318,-5.27874 1.04696,-2.236 1.56394,-5.75458 1.94862,-8.137256 0.38469,-2.382683 0.29959,-4.417564 0.35951,-6.158813 0.0599,-1.741242 0,-3.573876 0,-4.288651"
       fill-rule="nonzero"
       id="path139" />
    <path
       fill="#f2f6a3"
       d="m 308.65582,158.28847 v 0 c 0,-54.25437 48.71283,-98.23623 108.80313,-98.23623 v 0 c 60.09033,0 108.80313,43.98186 108.80313,98.23623 v 0 c 0,54.25436 -48.7128,98.23622 -108.80313,98.23622 v 0 c -60.0903,0 -108.80313,-43.98186 -108.80313,-98.23622 z"
       fill-rule="nonzero"
       id="path141" />
    <path
       fill="#f2f6a3"
       d="m 85.31109,142.7084 v 0 c 0,-69.339066 68.31701,-125.55432 152.5903,-125.5603 v 0 c 84.27328,-0.006 152.5903,56.199596 152.5903,125.53867 v 0 c 0,69.33905 -68.31702,125.55432 -152.5903,125.5603 v 0 c -84.2733,0.006 -152.5903,-56.1996 -152.5903,-125.53867 z"
       fill-rule="nonzero"
       id="path143" />
    <path
       fill="#f2f6a3"
       d="m 17.625046,288.51776 v 0 c 0,-54.25241 48.709793,-98.23614 108.796374,-98.24042 v 0 c 60.08658,-0.004 108.79637,43.97258 108.79637,98.22501 v 0 c 0,54.25241 -48.7098,98.23614 -108.79637,98.24042 v 0 C 66.334836,386.74704 17.625046,342.7702 17.625046,288.51776 Z"
       fill-rule="nonzero"
       id="path145" />
    <path
       fill="#f2f6a3"
       d="m 317.90436,409.52792 v 0 c 0,-56.20593 52.91559,-101.77362 118.19031,-101.77823 v 0 c 65.27469,-0.005 118.19031,45.55551 118.19031,101.76147 v 0 c 0,56.20594 -52.91562,101.7736 -118.19031,101.77824 v 0 c -65.27472,0.005 -118.19031,-45.55555 -118.19031,-101.76148 z"
       fill-rule="nonzero"
       id="path147" />
    <path
       fill="#f2f6a3"
       d="m 392.6125,250.74164 v 0 c 0,-54.25243 48.70981,-98.23616 108.79639,-98.24042 v 0 c 60.08661,-0.004 108.79639,43.97256 108.79639,98.22499 v 0 c 0,54.25243 -48.70978,98.23616 -108.79639,98.24043 v 0 c -60.08658,0.004 -108.79639,-43.97257 -108.79639,-98.22501 z"
       fill-rule="nonzero"
       id="path149" />
    <path
       fill="#f2f6a3"
       d="m 146.3305,429.9011 v 0 c 0,-62.22574 56.93249,-112.67371 127.16229,-112.67868 v 0 c 70.2298,-0.005 127.16229,50.43491 127.16229,112.66064 v 0 c 0,62.22571 -56.9325,112.67371 -127.16229,112.67866 v 0 C 203.26299,542.56672 146.3305,492.12681 146.3305,429.9011 Z"
       fill-rule="nonzero"
       id="path151" />
    <path
       fill="#f2f6a3"
       d="m 197.40904,288.659 v 0 c 0,-69.33905 68.317,-125.55431 152.59029,-125.56029 v 0 c 84.27331,-0.006 152.5903,56.1996 152.5903,125.53865 v 0 c 0,69.33908 -68.31699,125.55432 -152.5903,125.5603 v 0 c -84.27329,0.006 -152.59029,-56.19959 -152.59029,-125.53867 z"
       fill-rule="nonzero"
       id="path153" />
    <path
       fill="#653618"
       d="m 339.649,573.98645 c -3.66473,3.2655 -2.02655,10.87225 3.75629,13.06366 5.78283,2.19141 24.04574,1.12335 30.94076,0.0848 6.89502,-1.03852 9.29782,-3.77155 10.42935,-6.31604 1.13153,-2.5445 -0.40988,-6.72382 -3.64013,-8.95075 -3.23029,-2.22699 -8.82709,-4.76404 -15.74146,-4.41101 -6.91437,0.35309 -22.08005,3.26386 -25.74481,6.52936 z"
       fill-rule="nonzero"
       id="path155" />
    <path
       fill="#ffffff"
       d="m 342.06772,570.82965 c -3.27423,2.08112 -3.4252,6.85016 0.43353,8.18292 3.85871,1.33277 17.46765,0.51996 22.71875,-0.18628 5.2511,-0.70624 7.50327,-2.44287 8.78781,-4.05108 1.28452,-1.60828 0.89624,-4.22358 -1.08062,-5.59845 -1.97687,-1.37488 -5.63733,-2.9264 -10.78058,-2.65094 -5.14325,0.27551 -16.80466,2.22271 -20.07889,4.30383 z"
       fill-rule="nonzero"
       id="path157" />
    <path
       fill="#653618"
       d="m 315.80396,567.5421 c 4.16913,2.48724 3.98767,10.25708 -1.22842,13.52679 -5.21607,3.26972 -23.17127,5.77002 -30.068,6.09162 -6.89673,0.32159 -9.74005,-1.88916 -11.31234,-4.16205 -1.5723,-2.27283 -0.849,-6.66632 1.8786,-9.47516 2.7276,-2.8089 7.69867,-6.3811 14.48703,-7.37799 6.78836,-0.99683 22.07403,-1.09045 26.24313,1.39679 z"
       fill-rule="nonzero"
       id="path159" />
    <path
       fill="#ffffff"
       d="m 312.86652,564.9193 c 3.56967,1.40289 4.60129,6.04541 1.09674,8.10034 -3.50455,2.05493 -16.88736,3.90149 -22.12402,4.22937 -5.23667,0.32794 -7.74869,-0.93597 -9.29605,-2.26202 -1.54734,-1.32599 -1.65503,-3.96338 0.012,-5.69409 1.66702,-1.73078 4.9382,-3.96155 9.99011,-4.69043 5.05188,-0.72895 16.75159,-1.086 20.32123,0.31683 z"
       fill-rule="nonzero"
       id="path161" />
    <path
       fill="#cc8c44"
       d="m 441.31677,381.95493 c 0.67548,-2.2406 5.86618,-7.09775 9.01062,-9.99258 3.14441,-2.89481 7.54861,-6.52344 9.85593,-7.37635 2.30731,-0.85293 4.4526,0.37369 3.98794,2.25882 -0.46466,1.88513 -3.79315,5.95844 -6.77591,9.05197 -2.98279,3.09351 -8.44095,8.49945 -11.12073,9.50916 -2.67974,1.00967 -5.6333,-1.21042 -4.95785,-3.45102 z"
       fill-rule="nonzero"
       id="path163" />
    <path
       fill="#cc8c44"
       d="m 446.09552,382.68716 c 1.15356,-2.20493 7.07477,-6.11551 10.65036,-8.43436 3.57562,-2.31881 8.4823,-5.11749 10.80328,-5.4786 2.32102,-0.36109 3.99811,1.43267 3.12268,3.31198 -0.87539,1.87927 -4.9006,5.39776 -8.37515,7.9638 -3.47452,2.56604 -9.77188,6.99289 -12.47207,7.43241 -2.7002,0.43954 -4.88263,-2.5903 -3.7291,-4.79523 z"
       fill-rule="nonzero"
       id="path165" />
    <path
       fill="#cc8c44"
       d="m 447.7069,385.6312 c 1.57266,-1.92691 7.91159,-4.74957 11.72949,-6.41342 3.81787,-1.66382 8.96732,-3.58121 11.1778,-3.56952 2.21051,0.0117 3.32687,1.98074 2.08517,3.63965 -1.2417,1.65887 -5.75217,4.3984 -9.53534,6.31363 -3.78314,1.91525 -10.58749,5.17279 -13.16366,5.17773 -2.57621,0.005 -3.86615,-3.22116 -2.29346,-5.14807 z"
       fill-rule="nonzero"
       id="path167" />
    <path
       fill="#cc8c44"
       d="m 446.64603,386.23557 c 2.07944,-1.42508 8.46069,-2.05179 12.2894,-2.39172 3.82873,-0.33994 8.86059,-0.4603 10.68289,0.35205 1.82233,0.81234 1.94839,3.25451 0.25095,4.52197 -1.69742,1.26746 -6.53379,2.47006 -10.43552,3.08279 -3.90176,0.61274 -10.84363,1.52106 -12.97491,0.59354 -2.13129,-0.92749 -1.89225,-4.73358 0.18719,-6.15863 z"
       fill-rule="nonzero"
       id="path169" />
    <path
       fill="#cc8c44"
       d="m 445.6965,377.96722 6.0517,12.52457 -19.01838,11.63769 -6.05169,-12.5246 z"
       fill-rule="nonzero"
       id="path171" />
    <path
       fill="#cc8c44"
       d="m 443.9914,388.32513 c -1.42706,-1.38623 -1.35767,-7.30667 -1.27316,-10.87494 0.0845,-3.56824 0.58313,-8.40301 1.78009,-10.53464 1.19693,-2.13162 4.11294,-3.34033 5.40155,-2.25509 1.28863,1.08526 2.10003,5.24872 2.33014,8.76657 0.23013,3.51788 0.42367,9.85763 -0.94944,12.34067 -1.3731,2.483 -5.86212,3.94369 -7.28918,2.55743 z"
       fill-rule="nonzero"
       id="path173" />
    <path
       fill="#cc8c44"
       d="m 319.07904,407.1076 h 31.59055 v 20 h -31.59055 z"
       fill-rule="nonzero"
       id="path175" />
    <path
       fill="#cc8c44"
       d="m 251.67717,336.48557 v 0 c 0,-40.4342 34.87947,-73.21259 77.9055,-73.21259 v 0 c 20.66183,0 40.47742,7.71344 55.08752,21.44345 14.61011,13.73005 22.818,32.35196 22.818,51.76914 v 0 c 0,40.4342 -34.87949,73.21258 -77.90552,73.21258 v 0 c -43.02603,0 -77.9055,-32.77838 -77.9055,-73.21258 z"
       fill-rule="nonzero"
       id="path177" />
    <path
       fill="#20124d"
       d="m 361.5278,511.1286 v 65.44885 l -24.50394,-0.0315 V 511.0971 Z"
       fill-rule="nonzero"
       id="path179" />
    <path
       fill="#20124d"
       d="m 327.5409,508.79794 -6.61417,65.10239 -23.62207,-2.42523 6.6142,-65.10236 z"
       fill-rule="nonzero"
       id="path181" />
    <path
       fill="#653618"
       d="m 259.73752,318.09973 2.68506,29.55118 14.77688,-42.98426 4.02887,21.49082 25.52234,-28.20734 -2.68506,20.1496 26.86615,-25.52231 51.04462,20.14698 -8.06036,-17.46192 30.89502,42.98685 -4.02887,-33.58267 -40.29923,-30.89499 h -42.98425 l -40.29922,17.46191 z"
       fill-rule="nonzero"
       id="path183" />
    <path
       fill="#653618"
       d="m 337.02887,279.6063 -0.49869,-14 -3,-4 -8.50131,-3.49869 -15,1.49869 -24.49869,10 -12,9 -11.50131,13.50131 -11.49869,24.49869 -1.50131,19 4,41.50131 10.50131,53 3,-17 5.49869,11 V 406.6063 l 5.50131,4 -15,-60.49869 v -34 l 36,-32 z"
       fill-rule="nonzero"
       id="path185" />
    <path
       stroke="#653618"
       stroke-width="8"
       stroke-miterlimit="8"
       stroke-linecap="butt"
       d="m 337.02887,279.6063 -0.49869,-14 -3,-4 -8.50131,-3.49869 -15,1.49869 -24.49869,10 -12,9 -11.50131,13.50131 -11.49869,24.49869 -1.50131,19 4,41.50131 10.50131,53 3,-17 5.49869,11 V 406.6063 l 5.50131,4 -15,-60.49869 v -34 l 36,-32 z"
       fill-rule="nonzero"
       id="path187" />
    <path
       fill="#653618"
       d="m 332.48578,278.4192 0.42505,-14.2576 2.55688,-4.07358 7.24567,-3.56308 12.78452,1.52628 20.88021,10.18399 10.2276,9.16559 9.80259,13.74975 9.80032,24.94947 1.27957,19.34958 -3.40921,42.26495 -8.95026,53.97519 -2.55691,-17.31281 -4.68652,11.20243 v -17.82334 l -4.68875,4.07358 12.78448,-61.61185 v -34.62561 l -30.6828,-32.5888 z"
       fill-rule="nonzero"
       id="path189" />
    <path
       stroke="#653618"
       stroke-width="8"
       stroke-miterlimit="8"
       stroke-linecap="butt"
       d="m 332.48578,278.4192 0.42505,-14.2576 2.55688,-4.07358 7.24567,-3.56308 12.78452,1.52628 20.88021,10.18399 10.2276,9.16559 9.80259,13.74975 9.80032,24.94947 1.27957,19.34958 -3.40921,42.26495 -8.95026,53.97519 -2.55691,-17.31281 -4.68652,11.20243 v -17.82334 l -4.68875,4.07358 12.78448,-61.61185 v -34.62561 l -30.6828,-32.5888 z"
       fill-rule="nonzero"
       id="path191" />
    <path
       fill="#000000"
       d="m 346.02887,342.1076 v 0 c 0,-5.52283 4.58997,-10 10.25198,-10 v 0 c 2.71897,0 5.3266,1.05359 7.24924,2.92892 1.92261,1.87537 3.00272,4.41892 3.00272,7.07108 v 0 c 0,5.52286 -4.58997,10 -10.25196,10 v 0 c -5.66201,0 -10.25198,-4.47714 -10.25198,-10 z"
       fill-rule="nonzero"
       id="path193" />
    <path
       fill="#ffffff"
       d="m 355.52756,342.1076 v 0 c 0,-2.07867 1.67804,-3.76376 3.74805,-3.76376 v 0 c 0.99402,0 1.94735,0.39654 2.65023,1.10238 0.70292,0.70584 1.09778,1.66318 1.09778,2.66138 v 0 c 0,2.07867 -1.67804,3.76379 -3.74801,3.76379 v 0 c -2.07001,0 -3.74805,-1.68512 -3.74805,-3.76379 z"
       fill-rule="nonzero"
       id="path195" />
    <path
       fill="#000000"
       d="m 304.02887,342.1076 v 0 c 0,-5.52283 4.58997,-10 10.25198,-10 v 0 c 2.71897,0 5.3266,1.05359 7.24924,2.92892 1.92261,1.87537 3.00272,4.41892 3.00272,7.07108 v 0 c 0,5.52286 -4.58997,10 -10.25196,10 v 0 c -5.66201,0 -10.25198,-4.47714 -10.25198,-10 z"
       fill-rule="nonzero"
       id="path197" />
    <path
       fill="#ffffff"
       d="m 313.52756,342.1076 v 0 c 0,-2.07867 1.67804,-3.76376 3.74805,-3.76376 v 0 c 0.99402,0 1.94735,0.39654 2.65023,1.10238 0.70292,0.70584 1.09778,1.66318 1.09778,2.66138 v 0 c 0,2.07867 -1.67804,3.76379 -3.74801,3.76379 v 0 c -2.07001,0 -3.74805,-1.68512 -3.74805,-3.76379 z"
       fill-rule="nonzero"
       id="path199" />
    <path
       fill="#a06d35"
       d="m 326.02887,356.6063 20,0.3819 -1.50131,4.1889 -4.49869,3.42911 h -6.50131 l -5,-2.2854 z"
       fill-rule="nonzero"
       id="path201" />
    <path
       fill="#653618"
       d="m 299.22772,333.36417 -2.54599,-5.27106 10.88412,-6.63315 17.75644,-3.31347 -16.3067,7.68811 z"
       fill-rule="nonzero"
       id="path203" />
    <path
       fill="#653618"
       d="m 373.52756,332.1076 2,-5.50131 -11.49869,-5.49869 -18,-1.50131 17,6 z"
       fill-rule="nonzero"
       id="path205" />
    <path
       fill="#ffffff"
       d="m 295.47522,378.50272 c -6.09152,3.15262 24.366,15.76178 36.54898,15.13101 12.18301,-0.6308 42.6405,-16.39392 36.54901,-18.91574 -6.09149,-2.52185 -67.0065,0.63211 -73.09799,3.78473 z"
       fill-rule="nonzero"
       id="path207" />
    <path
       stroke="#a06d35"
       stroke-width="2"
       stroke-linejoin="round"
       stroke-linecap="butt"
       d="m 295.47522,378.50272 c -6.09152,3.15262 24.366,15.76178 36.54898,15.13101 12.18301,-0.6308 42.6405,-16.39392 36.54901,-18.91574 -6.09149,-2.52185 -67.0065,0.63211 -73.09799,3.78473 z"
       fill-rule="nonzero"
       id="path209" />
    <path
       fill="#a06d35"
       d="m 287.43466,363.34387 v 0 c 0,-0.68201 0.67468,-1.23486 1.50699,-1.23486 v 0 c 0.83227,0 1.50696,0.55285 1.50696,1.23486 v 0 c 0,0.68198 -0.67469,1.23483 -1.50696,1.23483 v 0 c -0.83231,0 -1.50699,-0.55285 -1.50699,-1.23483 z"
       fill-rule="nonzero"
       id="path211" />
    <path
       fill="#a06d35"
       d="m 294.54642,368.71222 v 0 c 0,-0.68201 0.67471,-1.23486 1.50699,-1.23486 v 0 c 0.83227,0 1.50696,0.55285 1.50696,1.23486 v 0 c 0,0.68198 -0.67469,1.23483 -1.50696,1.23483 v 0 c -0.83228,0 -1.50699,-0.55285 -1.50699,-1.23483 z"
       fill-rule="nonzero"
       id="path213" />
    <path
       fill="#a06d35"
       d="m 300.93307,360.5645 v 0 c 0.56235,-0.42355 1.43765,-0.26062 1.95502,0.36395 v 0 c 0.51736,0.62454 0.48089,1.47422 -0.0815,1.89777 v 0 c -0.56235,0.42355 -1.43763,0.26059 -1.95499,-0.36395 v 0 c -0.51737,-0.62458 -0.4809,-1.47422 0.0814,-1.89777 z"
       fill-rule="nonzero"
       id="path215" />
    <path
       fill="#a06d35"
       d="m 307.9101,364.82785 v 0 c 0,-0.68198 0.67471,-1.23483 1.50699,-1.23483 v 0 c 0.83227,0 1.50699,0.55285 1.50699,1.23483 v 0 c 0,0.68201 -0.67472,1.23486 -1.50699,1.23486 v 0 c -0.83228,0 -1.50699,-0.55285 -1.50699,-1.23486 z"
       fill-rule="nonzero"
       id="path217" />
    <path
       fill="#a06d35"
       d="m 291.53247,357.18912 v 0 c 0,-0.68201 0.67468,-1.23486 1.50696,-1.23486 v 0 c 0.8323,0 1.50699,0.55285 1.50699,1.23486 v 0 c 0,0.68198 -0.67469,1.23483 -1.50699,1.23483 v 0 c -0.83228,0 -1.50696,-0.55285 -1.50696,-1.23483 z"
       fill-rule="nonzero"
       id="path219" />
    <path
       fill="#a06d35"
       d="m 279.7699,366.75046 v 0 c -0.24741,-0.63892 0.18414,-1.38382 0.96393,-1.66382 v 0 c 0.77981,-0.27997 1.61255,0.011 1.85998,0.64993 v 0 c 0.24744,0.63892 -0.18414,1.38382 -0.96392,1.66379 v 0 c -0.77982,0.28 -1.61255,-0.011 -1.85999,-0.6499 z"
       fill-rule="nonzero"
       id="path221" />
    <path
       fill="#a06d35"
       d="m 380.29315,361.39258 v 0 c -0.0784,0.67746 -0.76111,1.15503 -1.52484,1.06668 v 0 c -0.76373,-0.0883 -1.31931,-0.70914 -1.24091,-1.38657 v 0 c 0.0784,-0.67745 0.76111,-1.15499 1.52484,-1.06668 v 0 c 0.76377,0.0883 1.31931,0.70914 1.24091,1.38657 z"
       fill-rule="nonzero"
       id="path223" />
    <path
       fill="#a06d35"
       d="m 374.3843,355.30518 v 0 c -0.0784,0.67746 -0.76111,1.15503 -1.52484,1.06668 v 0 c -0.76373,-0.0883 -1.31931,-0.70911 -1.24088,-1.38657 v 0 c 0.0784,-0.67742 0.76111,-1.15499 1.52484,-1.06668 v 0 c 0.76374,0.0883 1.31931,0.70914 1.24088,1.38657 z"
       fill-rule="nonzero"
       id="path225" />
    <path
       fill="#a06d35"
       d="m 367.58685,362.72076 v 0 c -0.56473,0.36102 -1.34918,0.10626 -1.75214,-0.56903 v 0 c -0.40295,-0.67532 -0.27179,-1.51544 0.29294,-1.8765 v 0 c 0.56476,-0.36102 1.34921,-0.10626 1.75217,0.56903 v 0 c 0.40292,0.67533 0.27179,1.51545 -0.29297,1.8765 z"
       fill-rule="nonzero"
       id="path227" />
    <path
       fill="#a06d35"
       d="m 361.67462,357.7453 v 0 c -0.0784,0.67743 -0.76111,1.155 -1.52484,1.06668 v 0 c -0.76373,-0.0883 -1.31931,-0.70914 -1.24088,-1.38657 v 0 c 0.0784,-0.67746 0.76111,-1.15502 1.52484,-1.06668 v 0 c 0.76374,0.0883 1.31931,0.70911 1.24088,1.38657 z"
       fill-rule="nonzero"
       id="path229" />
    <path
       fill="#a06d35"
       d="m 375.8252,367.0714 v 0 c -0.0784,0.67743 -0.76111,1.155 -1.52484,1.06665 v 0 c -0.76373,-0.0883 -1.31931,-0.70911 -1.24091,-1.38657 v 0 c 0.0784,-0.67743 0.76111,-1.15499 1.52484,-1.06665 v 0 c 0.76374,0.0883 1.31931,0.70911 1.24091,1.38657 z"
       fill-rule="nonzero"
       id="path231" />
    <path
       fill="#a06d35"
       d="m 356.97937,363.67914 v 0 c -0.0784,0.67746 -0.76111,1.15503 -1.52487,1.06668 v 0 c -0.76373,-0.0883 -1.31928,-0.70911 -1.24088,-1.38657 v 0 c 0.0784,-0.67742 0.76111,-1.15499 1.52484,-1.06668 v 0 c 0.76374,0.0883 1.31931,0.70914 1.24091,1.38657 z"
       fill-rule="nonzero"
       id="path233" />
    <path
       fill="#a06d35"
       d="m 387.71832,358.8222 v 0 c 0.15359,0.66092 -0.32806,1.35507 -1.07584,1.55041 v 0 c -0.74774,0.19535 -1.47845,-0.18209 -1.63205,-0.84301 v 0 c -0.15359,-0.66092 0.32807,-1.35504 1.07584,-1.55042 v 0 c 0.74777,-0.19534 1.47845,0.1821 1.63205,0.84302 z"
       fill-rule="nonzero"
       id="path235" />
    <path
       fill="#206dd7"
       d="m 330.25046,439.36603 105.16534,-57.82675 9.63779,17.5748 -105.16534,57.82678 z"
       fill-rule="nonzero"
       id="path237" />
    <path
       fill="#000000"
       fill-opacity="0"
       d="m 333.70865,450.39896 -0.50394,64.81888"
       fill-rule="nonzero"
       id="path239" />
    <path
       stroke="#d156d7"
       stroke-width="2"
       stroke-linejoin="round"
       stroke-linecap="butt"
       d="m 333.70865,450.39896 -0.50394,64.81888"
       fill-rule="nonzero"
       id="path241" />
    <path
       fill="#206dd7"
       d="M 349.11792,522.21783 H 320.6275 v 0 c -6.71365,0 -13.15234,-2.66699 -17.89959,-7.41425 -4.74729,-4.74725 -7.41425,-11.18594 -7.41425,-17.89956 v -81.42633 c 0,-3.7e-4 2.8e-4,-6.7e-4 6.4e-4,-6.7e-4 l 79.11746,6.7e-4 v 0 c 3.7e-4,0 6.4e-4,3e-4 6.4e-4,6.7e-4 l -6.4e-4,81.42566 v 0 c 0,13.98044 -11.3334,25.31381 -25.31384,25.31381 z"
       fill-rule="nonzero"
       id="path243" />
    <path
       fill="#cc8c44"
       d="m 350.1811,414.2454 -15.30707,42.48819 -15.3071,-42.48819 z"
       fill-rule="nonzero"
       id="path245" />
    <path
       fill="#3f99ff"
       d="m 346.596,414.59845 19.43307,5.00787 -28.97638,31.96851 z"
       fill-rule="nonzero"
       id="path247" />
    <path
       fill="#ffffff"
       d="m 343.3622,427.1076 -8.48819,30.26773 -8.48819,-30.26773 z"
       fill-rule="nonzero"
       id="path249" />
    <path
       fill="#000000"
       fill-opacity="0"
       d="m 334.7953,461.28348 0.15747,52.22049"
       fill-rule="nonzero"
       id="path251" />
    <path
       stroke="#3f99ff"
       stroke-width="4"
       stroke-linejoin="round"
       stroke-linecap="butt"
       d="m 334.7953,461.28348 0.15747,52.22049"
       fill-rule="nonzero"
       id="path253" />
    <path
       fill="#206dd7"
       d="m 272.17847,319.80313 v 0 c 1.11328,-27.65771 28.95624,-49 62.18899,-47.66928 33.23276,1.33069 59.27076,24.83044 58.15747,52.48819 v 0 c -7.48944,-22.11893 -31.22183,-37.87714 -58.70129,-38.97745 -27.47949,-1.10034 -52.40204,12.70963 -61.64517,34.15854 z"
       fill-rule="nonzero"
       id="path255" />
    <path
       fill="#434343"
       d="m 453.0618,335.50464 h 52.35245 v 88.07632 H 453.0618 Z"
       fill-rule="nonzero"
       id="path257" />
    <path
       stroke="#000000"
       stroke-width="2"
       stroke-linejoin="round"
       stroke-linecap="butt"
       d="m 453.0618,335.50464 h 52.35245 v 88.07632 H 453.0618 Z"
       fill-rule="nonzero"
       id="path259" />
    <path
       fill="#cccccc"
       d="m 458.2477,340.51352 h 42.49469 v 35.95245 H 458.2477 Z"
       fill-rule="nonzero"
       id="path261" />
    <path
       stroke="#000000"
       stroke-width="2"
       stroke-linejoin="round"
       stroke-linecap="butt"
       d="m 458.2477,340.51352 h 42.49469 v 35.95245 H 458.2477 Z"
       fill-rule="nonzero"
       id="path263" />
    <path
       fill="#000000"
       d="m 459.30365,386.9564 h 5.77295 v 5.23923 h -5.77295 z"
       fill-rule="nonzero"
       id="path265" />
    <path
       fill="#000000"
       d="m 467.8901,386.9564 h 5.77295 v 5.23923 h -5.77295 z"
       fill-rule="nonzero"
       id="path267" />
    <path
       fill="#000000"
       d="m 476.4766,386.9564 h 5.77295 v 5.23923 h -5.77295 z"
       fill-rule="nonzero"
       id="path269" />
    <path
       fill="#000000"
       d="m 485.06305,386.9564 h 5.77295 v 5.23923 h -5.77295 z"
       fill-rule="nonzero"
       id="path271" />
    <path
       fill="#000000"
       d="m 493.64954,386.9564 h 5.77292 v 5.23923 h -5.77292 z"
       fill-rule="nonzero"
       id="path273" />
    <path
       fill="#f1c232"
       d="m 493.64954,379.09158 h 5.77292 v 5.2392 h -5.77292 z"
       fill-rule="nonzero"
       id="path275" />
    <path
       fill="#000000"
       d="m 485.09778,379.09158 h 5.77295 v 5.2392 h -5.77295 z"
       fill-rule="nonzero"
       id="path277" />
    <path
       fill="#000000"
       d="m 459.17773,395.66864 h 5.77295 v 5.2392 h -5.77295 z"
       fill-rule="nonzero"
       id="path279" />
    <path
       fill="#000000"
       d="m 467.7642,395.66864 h 5.77295 v 5.2392 h -5.77295 z"
       fill-rule="nonzero"
       id="path281" />
    <path
       fill="#000000"
       d="m 476.35068,395.66864 h 5.77295 v 5.2392 h -5.77295 z"
       fill-rule="nonzero"
       id="path283" />
    <path
       fill="#000000"
       d="m 484.93713,395.66864 h 5.77295 v 5.2392 h -5.77295 z"
       fill-rule="nonzero"
       id="path285" />
    <path
       fill="#000000"
       d="m 493.52362,395.66864 h 5.77295 v 5.2392 h -5.77295 z"
       fill-rule="nonzero"
       id="path287" />
    <path
       fill="#000000"
       d="m 459.30365,404.82434 h 5.77295 v 5.2392 h -5.77295 z"
       fill-rule="nonzero"
       id="path289" />
    <path
       fill="#000000"
       d="m 467.8901,404.82434 h 5.77295 v 5.2392 h -5.77295 z"
       fill-rule="nonzero"
       id="path291" />
    <path
       fill="#000000"
       d="m 476.4766,404.82434 h 5.77295 v 5.2392 h -5.77295 z"
       fill-rule="nonzero"
       id="path293" />
    <path
       fill="#000000"
       d="m 485.06305,404.82434 h 5.77295 v 5.2392 h -5.77295 z"
       fill-rule="nonzero"
       id="path295" />
    <path
       fill="#000000"
       d="m 493.64954,404.82434 h 5.77292 v 5.2392 h -5.77292 z"
       fill-rule="nonzero"
       id="path297" />
    <path
       fill="#6aa84f"
       d="m 459.17862,413.09396 h 5.77292 v 5.2392 h -5.77292 z"
       fill-rule="nonzero"
       id="path299" />
    <path
       fill="#3d85c6"
       d="m 467.76508,413.09396 h 5.77295 v 5.2392 h -5.77295 z"
       fill-rule="nonzero"
       id="path301" />
    <path
       fill="#000000"
       d="m 476.35153,413.09396 h 5.77295 v 5.2392 h -5.77295 z"
       fill-rule="nonzero"
       id="path303" />
    <path
       fill="#000000"
       d="m 484.93802,413.09396 h 5.77295 v 5.2392 h -5.77295 z"
       fill-rule="nonzero"
       id="path305" />
    <path
       fill="#000000"
       d="m 493.52448,413.09396 h 5.77295 v 5.2392 h -5.77295 z"
       fill-rule="nonzero"
       id="path307" />
    <path
       fill="#000000"
       fill-opacity="0"
       d="m 458.0115,370.14215 h 42.453"
       fill-rule="nonzero"
       id="path309" />
    <path
       stroke="#000000"
       stroke-width="2"
       stroke-linejoin="round"
       stroke-linecap="butt"
       d="m 458.0115,370.14215 h 42.453"
       fill-rule="nonzero"
       id="path311" />
    <path
       fill="#000000"
       fill-opacity="0"
       d="m 468.35904,341.1117 0.10422,35.29239"
       fill-rule="nonzero"
       id="path313" />
    <path
       stroke="#000000"
       stroke-width="2"
       stroke-linejoin="round"
       stroke-linecap="butt"
       d="m 468.35904,341.1117 0.10422,35.29239"
       fill-rule="nonzero"
       id="path315" />
    <path
       fill="#000000"
       fill-opacity="0"
       d="m 458.239,356.94788 c 0.3569,0.89786 1.10486,3.64609 2.14142,5.38705 1.03656,1.74094 2.45865,3.8125 4.07788,5.05872 1.61923,1.24619 3.24829,2.10678 5.63748,2.41849 2.38916,0.31167 5.76657,0.25781 8.6976,-0.54834 2.93106,-0.80615 6.68503,-2.69409 8.88867,-4.28867 2.20365,-1.59454 3.28623,-3.04272 4.3332,-5.27871 1.04696,-2.236 1.56393,-5.75458 1.9486,-8.13727 0.38471,-2.38269 0.29959,-4.41757 0.35953,-6.15882 0.0599,-1.74124 0,-3.57388 0,-4.28863"
       fill-rule="nonzero"
       id="path317" />
    <path
       stroke="#000000"
       stroke-width="2"
       stroke-linejoin="round"
       stroke-linecap="butt"
       d="m 458.239,356.94788 c 0.3569,0.89786 1.10486,3.64609 2.14142,5.38705 1.03656,1.74094 2.45865,3.8125 4.07788,5.05872 1.61923,1.24619 3.24829,2.10678 5.63748,2.41849 2.38916,0.31167 5.76657,0.25781 8.6976,-0.54834 2.93106,-0.80615 6.68503,-2.69409 8.88867,-4.28867 2.20365,-1.59454 3.28623,-3.04272 4.3332,-5.27871 1.04696,-2.236 1.56393,-5.75458 1.9486,-8.13727 0.38471,-2.38269 0.29959,-4.41757 0.35953,-6.15882 0.0599,-1.74124 0,-3.57388 0,-4.28863"
       fill-rule="nonzero"
       id="path319" />
    <path
       fill="#cc8c44"
       d="m 231.47,372.81085 c -0.52417,-2.54883 -5.7842,-8.4678 -8.97533,-12.00082 -3.19113,-3.53302 -7.7032,-8.01047 -10.17148,-9.19727 -2.46826,-1.1868 -4.96447,-0.0571 -4.63812,2.07645 0.32634,2.13351 3.60373,6.98904 6.59618,10.7247 2.99246,3.73565 8.49373,10.2897 11.35852,11.68918 2.86479,1.3995 6.35441,-0.74338 5.83023,-3.29224 z"
       fill-rule="nonzero"
       id="path321" />
    <path
       fill="#cc8c44"
       d="m 226.1089,373.11578 c -1.05679,-2.55991 -7.21947,-7.50937 -10.94515,-10.45105 -3.72567,-2.94165 -8.87651,-6.5545 -11.40891,-7.19894 -2.53241,-0.64444 -4.56702,1.16183 -3.78557,3.3323 0.78146,2.17047 4.8851,6.48612 8.4743,9.69043 3.5892,3.20435 10.1167,8.76441 13.06091,9.53562 2.94423,0.77121 5.6612,-2.34848 4.60442,-4.90836 z"
       fill-rule="nonzero"
       id="path323" />
    <path
       fill="#cc8c44"
       d="m 224.0324,376.20087 c -1.54829,-2.29675 -8.28163,-6.0874 -12.34068,-8.33038 -4.05905,-2.24301 -9.56633,-4.90702 -12.01361,-5.1276 -2.4473,-0.22055 -3.87886,1.83881 -2.67012,3.80423 1.20874,1.96543 5.927,5.47101 9.92259,7.98835 3.99557,2.5173 11.20059,6.83798 14.0509,7.11557 2.8503,0.27755 4.59921,-3.15339 3.05092,-5.45017 z"
       fill-rule="nonzero"
       id="path325" />
    <path
       fill="#cc8c44"
       d="m 225.14615,376.9812 c -2.15909,-1.79538 -9.15811,-3.16235 -13.36108,-3.94266 -4.20296,-0.78027 -9.75921,-1.44482 -11.85671,-0.73907 -2.09749,0.70575 -2.48036,3.39279 -0.72829,4.97357 1.75206,1.58075 6.98412,3.42136 11.24071,4.51096 4.25658,1.08963 11.8479,2.82724 14.2988,2.02676 2.4509,-0.80045 2.56564,-5.03418 0.40657,-6.82956 z"
       fill-rule="nonzero"
       id="path327" />
    <path
       fill="#cc8c44"
       d="m 227.0208,367.93893 -7.94484,13.20963 19.88594,14.87689 7.94484,-13.2096 z"
       fill-rule="nonzero"
       id="path329" />
    <path
       fill="#cc8c44"
       d="m 227.87552,379.5721 c 1.71732,-1.38208 2.23047,-7.93582 2.49254,-11.89029 0.26208,-3.95444 0.19206,-9.35306 -0.92005,-11.83649 -1.11212,-2.48339 -4.2185,-4.12793 -5.75262,-3.06405 -1.53413,1.0639 -2.84691,5.58185 -3.4521,9.44735 -0.60521,3.86551 -1.45113,10.85514 -0.1791,13.7457 1.27205,2.8906 6.09401,4.97986 7.81133,3.59778 z"
       fill-rule="nonzero"
       id="path331" />
    <path
       fill="#206dd7"
       d="m 236.17981,372.32678 76.44061,48.68347 -10.77203,16.86215 -76.44061,-48.68344 z"
       fill-rule="nonzero"
       id="path333" />
    <path
       fill="#ff8ca6"
       d="m 209.50996,406.63425 v 0 c -0.55963,2.07367 -2.69434,3.30096 -4.76798,2.74124 l -4.0229,-1.08587 v 0 c -0.9958,-0.2688 -1.84405,-0.92215 -2.35817,-1.81635 -0.5141,-0.89423 -0.65195,-1.95602 -0.38321,-2.95184 l 1.88471,-6.98362 c 0.55963,-2.07366 2.69432,-3.30096 4.76797,-2.74124 l 4.02291,1.08588 c 2.07365,0.55972 3.30101,2.69449 2.74137,4.76819 z"
       fill-rule="nonzero"
       id="path335" />
    <path
       fill="#cda916"
       d="m 217.86153,329.84964 3.52914,0.95258 -17.71539,65.64307 -3.52914,-0.95261 z"
       fill-rule="nonzero"
       id="path337" />
    <path
       fill="#f1c71a"
       d="m 221.2633,330.76785 4.99268,1.34763 -17.7154,65.64307 -4.99267,-1.34766 z"
       fill-rule="nonzero"
       id="path339" />
    <path
       fill="#ffd732"
       d="m 225.86078,332.0088 3.52914,0.95261 -17.7154,65.64307 -3.52915,-0.95261 z"
       fill-rule="nonzero"
       id="path341" />
    <path
       fill="#f3d79f"
       d="m 217.73416,329.81525 9.41516,-13.26102 2.25603,16.41132 z"
       fill-rule="nonzero"
       id="path343" />
    <path
       fill="#f3d79f"
       d="m 217.32007,331.856 c 0.0574,0.18951 0.61769,-1.34882 1.12669,-1.17026 0.50899,0.17853 1.23813,2.07593 1.92728,2.24143 0.68915,0.16552 1.56252,-1.03324 2.20761,-1.24829 0.6451,-0.21506 1.16232,-0.56626 1.66293,-0.042 0.50061,0.5243 0.80059,2.87818 1.34076,3.18775 0.54017,0.30957 1.33055,-1.25885 1.90024,-1.33032 0.56969,-0.0715 1.26798,1.2232 1.51789,0.90149 0.2499,-0.32172 0.47679,-2.08353 -0.0184,-2.83176 -0.49522,-0.74826 -1.52684,-1.37521 -2.95295,-1.65769 -1.42612,-0.2825 -4.28212,0.0224 -5.60378,-0.0372 -1.32165,-0.0596 -1.80814,-0.65167 -2.32617,-0.32052 -0.51805,0.33114 -0.83949,2.11786 -0.78206,2.30737 z"
       fill-rule="nonzero"
       id="path345" />
    <path
       fill="#000000"
       d="m 224.19984,320.79504 2.99405,-4.22879 0.71109,5.22888 z"
       fill-rule="nonzero"
       id="path347" />
    <path
       fill="#b7b7b7"
       d="m 200.35793,394.70172 11.53226,3.11279 -1.26705,4.69495 -11.53225,-3.11279 z"
       fill-rule="nonzero"
       id="path349" />
    <path
       fill="#000000"
       fill-opacity="0"
       d="m 199.44002,398.10297 11.53226,3.11279"
       fill-rule="nonzero"
       id="path351" />
    <path
       stroke="#666666"
       stroke-width="2"
       stroke-linejoin="round"
       stroke-linecap="butt"
       d="m 199.44002,398.10297 11.53226,3.11279"
       fill-rule="nonzero"
       id="path353" />
    <path
       fill="#000000"
       fill-opacity="0"
       d="m 199.99817,396.03482 11.53224,3.11279"
       fill-rule="nonzero"
       id="path355" />
    <path
       stroke="#666666"
       stroke-width="2"
       stroke-linejoin="round"
       stroke-linecap="butt"
       d="m 199.99817,396.03482 11.53224,3.11279"
       fill-rule="nonzero"
       id="path357" />
    <path
       fill="#cc8c44"
       d="m 182.6727,367.90353 c 1.7108,1.9603 9.20216,4.5227 13.71852,6.02686 4.51636,1.50418 10.64723,3.18014 13.37961,2.99816 2.73236,-0.182 4.34881,-2.39386 3.01463,-4.09008 -1.33418,-1.6962 -6.57658,-4.30893 -11.01976,-6.08725 -4.44316,-1.77832 -12.45711,-4.77469 -15.63926,-4.58264 -3.18218,0.19204 -5.16454,3.77462 -3.45374,5.73495 z"
       fill-rule="nonzero"
       id="path359" />
    <path
       fill="#cc8c44"
       d="m 187.18855,364.9994 c 2.17978,1.70779 9.97955,2.98215 14.67006,3.70853 4.6905,0.72641 10.95173,1.33548 13.47298,0.6499 2.52124,-0.68561 3.40292,-3.2591 1.65446,-4.76343 -1.74846,-1.50436 -7.44421,-3.24054 -12.14525,-4.26272 -4.70102,-1.02219 -13.11885,-2.64838 -16.06088,-1.87043 -2.94205,0.77796 -3.77115,4.83039 -1.59137,6.53815 z"
       fill-rule="nonzero"
       id="path361" />
    <path
       fill="#cc8c44"
       d="m 187.47725,361.29233 c 2.47803,1.23682 10.20409,1.22174 14.84084,1.17599 4.63675,-0.0457 10.74116,-0.43789 12.97967,-1.4505 2.23851,-1.0126 2.47081,-3.50952 0.45139,-4.62512 -2.01943,-1.1156 -7.8514,-1.84424 -12.56794,-2.06848 -4.71653,-0.22424 -13.11398,-0.43829 -15.73132,0.72305 -2.61732,1.16135 -2.45068,5.00821 0.0274,6.24506 z"
       fill-rule="nonzero"
       id="path363" />
    <path
       fill="#cc8c44"
       d="m 186.12383,361.16138 c 2.76283,0.49985 9.52714,-1.75537 13.56918,-3.14499 4.04203,-1.38962 9.2049,-3.54602 10.68303,-5.19266 1.47814,-1.6466 0.48873,-4.17367 -1.81422,-4.68704 -2.30295,-0.5134 -7.76254,0.45993 -12.0035,1.60669 -4.24096,1.14679 -11.7032,3.37097 -13.44227,5.27396 -1.73909,1.90301 0.24496,5.64419 3.00778,6.14404 z"
       fill-rule="nonzero"
       id="path365" />
    <path
       fill="#cc8c44"
       d="m 188.94302,369.95374 0.41263,-15.40704 -24.63001,-3.15976 -0.41263,15.40704 z"
       fill-rule="nonzero"
       id="path367" />
    <path
       fill="#cc8c44"
       d="m 182.47308,360.24988 c -0.81433,2.0481 1.96492,8.00452 3.68327,11.57517 1.71836,3.57061 4.4366,8.23468 6.6269,9.84866 2.19029,1.61398 5.70332,1.51626 6.51486,-0.16474 0.81152,-1.68103 -0.26973,-6.25924 -1.64569,-9.92135 -1.37595,-3.66211 -4.08014,-10.16168 -6.61003,-12.0513 -2.5299,-1.88962 -7.75496,-1.33457 -8.56931,0.71356 z"
       fill-rule="nonzero"
       id="path369" />
    <path
       fill="#f2f6a3"
       d="m 157.82887,377.12686 10.77551,-40.21173 44.04433,11.80252 -10.7755,40.21173 z"
       fill-rule="nonzero"
       id="path371" />
    <path
       fill="#3f99ff"
       d="m 323.30447,414.90814 -19.2756,4.56696 28,32.12597 z"
       fill-rule="nonzero"
       id="path373" />
    <path
       fill="#000000"
       fill-opacity="0"
       d="M 117.16919,148.62529 313.35815,165.09773 303.24792,285.41269 107.05896,268.94025 Z"
       fill-rule="nonzero"
       id="path375" />
    <path
       fill="#29d726"
       d="m 236.29648,292.98294 q -9.06645,-1.63934 -17.95705,-2.3858 -8.87501,-0.74518 -20.97203,-1.40021 l -0.18709,2.22653 q -1.46408,17.42294 -2.47491,39.90158 l -24.00299,-3.58334 q 1.01083,-22.47861 2.34407,-38.34458 l 0.072,-0.85635 q -2.09962,0.16867 -36.54603,-0.98306 l 0.71119,-20.77896 q 25.23343,1.25625 37.75934,0.91244 2.81226,-23.0173 6.16176,-42.35171 l 23.9767,4.08288 q -3.53766,19.33431 -5.71704,39.11194 12.0957,0.67063 22.09178,1.50992 9.99608,0.83929 18.89256,2.44864 l -4.15222,20.49008 z"
       fill-rule="nonzero"
       id="path377" />
    <path
       fill="#000000"
       fill-opacity="0"
       d="M 160.08833,12.952275 270.10409,-16.118591 308.65527,129.73967 198.63951,158.81055 Z"
       fill-rule="nonzero"
       id="path379" />
    <path
       fill="#ff9900"
       d="m 232.27934,89.49854 q -11.41203,36.9866 -11.99501,38.44971 -0.56787,1.45913 -1.21745,1.63077 -5.13622,1.35721 -9.75646,1.0589 -4.61624,-0.28319 -6.63643,-1.13924 -2.00109,-0.84494 -2.11688,-1.28302 -0.11978,-0.45318 0.66791,-1.631 7.15869,-12.47729 19.10118,-49.474753 -21.62053,-22.488403 -25.09225,-24.189156 -1.26281,-0.619828 -4.11753,-0.964459 -2.8436,-0.363727 -4.89807,0.179154 -0.18873,-0.224873 -0.50815,-1.433373 -0.32341,-1.223606 -0.15533,-3.950794 0.16807,-2.727188 0.44592,-3.20464 0.28896,-0.496551 2.23964,-1.432193 5.25748,-2.488221 10.98283,-4.001107 5.72536,-1.512886 6.11048,-1.339904 0.40022,0.168987 2.75558,2.843502 10.89589,12.118523 17.87729,19.760422 10.05057,-31.68148 11.72739,-32.12457 3.59535,-0.950045 7.85875,-0.412005 4.27452,0.518944 6.92412,1.677355 2.64959,1.158411 2.85322,1.928831 -6.99914,9.962446 -17.51036,41.490906 30.05743,30.990104 42.0246,35.666104 0.44317,1.67679 -4.80853,6.57152 -5.23661,4.89074 -9.8592,6.11223 l -0.51364,0.13572 q -5.98428,-3.38021 -32.38362,-30.924912 z"
       fill-rule="nonzero"
       id="path381" />
    <path
       fill="#000000"
       fill-opacity="0"
       d="m 362.86707,37.92019 167.02362,12 -10.04724,139.9685 -167.02362,-12 z"
       fill-rule="nonzero"
       id="path383" />
    <path
       fill="#3f99ff"
       d="m 388.53842,103.22643 61.51938,3.02571 q 25.71497,1.84753 41.45941,4.88987 l -4.58704,20.47393 q -13.84423,-2.89016 -36.62924,-4.52717 l -63.24817,-3.1656 1.48566,-20.69675 z m -2.71179,37.7778 61.51828,3.0413 q 25.71496,1.84752 41.45941,4.88986 l -4.58704,20.47393 q -13.84311,-2.90575 -36.62814,-4.54276 l -63.24927,-3.15001 z"
       fill-rule="nonzero"
       id="path385" />
    <path
       fill="#ee3613"
       d="m 247.68935,200.0818 102.00948,-13.97624 2.4971,18.2151 -102.00948,13.97626 z"
       fill-rule="nonzero"
       id="path387" />
    <path
       fill="#ee3613"
       d="m 280.46262,171.17847 v 0 c -0.93997,-6.85666 4.9913,-13.33214 13.24789,-14.46336 v 0 c 8.25656,-1.13123 15.71183,3.51016 16.6518,10.36682 v 0 c 0.93997,6.85667 -4.9913,13.33213 -13.24787,14.46336 v 0 c -8.25656,1.13123 -15.71185,-3.51016 -16.65182,-10.36682 z"
       fill-rule="nonzero"
       id="path389" />
    <path
       fill="#ee3613"
       d="m 289.52985,237.3196 v 0 c -0.93997,-6.85666 4.9913,-13.33212 13.24786,-14.46335 v 0 c 8.25656,-1.13122 15.71183,3.51016 16.6518,10.36682 v 0 c 0.93997,6.85666 -4.9913,13.33213 -13.24787,14.46335 v 0 c -8.25656,1.13123 -15.71182,-3.51015 -16.65179,-10.36682 z"
       fill-rule="nonzero"
       id="path391" />
    <path
       fill="#000000"
       fill-opacity="0"
       d="m 153.16824,215.63554 c 1.02089,-4.52843 5.24435,-19.17941 6.12529,-27.17062 0.88094,-7.99123 3.01591,-17.61191 -0.83965,-20.77669 -3.85557,-3.1648 -30.34677,3.26767 -22.29376,1.78799 8.053,-1.47969 62.1016,-9.70552 70.61177,-10.66607 8.51016,-0.96058 -15.98616,1.00381 -19.55073,4.90271 -3.56458,3.89891 -2.66706,11.60929 -1.83673,18.4907 0.8303,6.88143 3.46907,19.03665 6.81862,22.79781 3.34954,3.76114 11.06556,-0.19241 13.27867,-0.2309"
       fill-rule="nonzero"
       id="path393" />
    <path
       stroke="#3f99ff"
       stroke-width="12"
       stroke-linejoin="round"
       stroke-linecap="butt"
       d="m 153.16824,215.63554 c 1.02089,-4.52843 5.24435,-19.17941 6.12529,-27.17062 0.88094,-7.99123 3.01591,-17.61191 -0.83965,-20.77669 -3.85557,-3.1648 -30.34677,3.26767 -22.29376,1.78799 8.053,-1.47969 62.1016,-9.70552 70.61177,-10.66607 8.51016,-0.96058 -15.98616,1.00381 -19.55073,4.90271 -3.56458,3.89891 -2.66706,11.60929 -1.83673,18.4907 0.8303,6.88143 3.46907,19.03665 6.81862,22.79781 3.34954,3.76114 11.06556,-0.19241 13.27867,-0.2309"
       fill-rule="nonzero"
       id="path395" />
    <path
       fill="#000000"
       fill-opacity="0"
       d="M 13.430806,204.49068 146.47018,166.8214 195.50956,340.08124 62.470189,377.75052 Z"
       fill-rule="nonzero"
       id="path397" />
    <path
       fill="#ee3613"
       d="m 72.95058,240.59424 q 10.102829,-2.86055 17.357895,2.00314 7.250816,4.84867 10.004015,14.5759 1.84681,6.52493 -1.826525,20.9137 -3.662552,14.36944 -11.118477,30.02407 2.521988,-1.81832 11.286797,-4.30004 8.764805,-2.48169 13.751575,-2.93555 l 2.56016,14.89728 q -8.11667,1.61612 -13.48379,3.1358 -14.718265,4.16739 -31.037898,15.41379 l -8.651379,-9.56745 q 10.653652,-15.60196 17.902103,-35.89099 7.244194,-20.30407 5.235687,-27.4003 -2.012771,-7.11128 -7.635483,-5.51924 -4.600395,1.30257 -8.025154,8.02098 -3.429016,6.70334 -6.370865,17.76706 l -15.345123,-5.33371 q 9.14473,-31.20286 25.396462,-35.80444 z"
       fill-rule="nonzero"
       id="path399" />
    <path
       fill="#000000"
       fill-opacity="0"
       d="m 403.0564,144.20992 74.92914,14.61417 -23.05511,118.55119 -74.92915,-14.6142 z"
       fill-rule="nonzero"
       id="path401" />
    <path
       fill="#ff9900"
       d="m 450.2816,200.61859 1.16827,14.04591 q -25.27389,33.21352 -35.82351,60.36806 l -13.64389,-3.99835 q 12.38928,-30.96661 35.81836,-59.03182 -15.30201,-1.77462 -26.06629,-2.4095 l -0.11905,-13.22041 q 15.34336,0.90712 38.66611,4.24611 z"
       fill-rule="nonzero"
       id="path403" />
    <path
       fill="#000000"
       fill-opacity="0"
       d="m 292.46304,17.120487 96.75589,4.377953 -5.48032,120.59842 -96.75589,-4.37795 z"
       fill-rule="nonzero"
       id="path405" />
    <path
       fill="#29d726"
       d="m 306.30127,74.69233 q 7.43054,-4.84095 13.3428,-6.903946 5.92856,-2.077896 13.23359,-1.74736 7.32064,0.331238 12.48233,5.491699 5.17727,5.161171 4.77722,13.964584 -0.40003,8.803421 -14.74958,17.898473 11.70472,6.77037 11.22239,17.38441 -0.48163,10.59844 -8.70609,17.07705 -8.22446,6.47862 -16.13821,6.12054 -7.8982,-0.35737 -14.3866,-3.16915 l -1.55469,-13.28698 q 4.13925,1.50113 10.24237,1.77729 6.11875,0.27685 11.03272,-2.19105 4.9303,-2.48281 5.09628,-6.13529 0.16669,-3.66809 -2.7189,-6.25429 -2.88486,-2.60181 -7.56757,-2.81369 -4.66708,-0.21118 -10.14441,1.23022 l -3.5129,-12.53097 q 12.77169,-3.629542 19.76092,-8.052516 6.98996,-4.438583 7.16443,-8.278374 0.19577,-4.308052 -4.47131,-4.519226 -6.24363,-0.282509 -17.24222,6.664948 z"
       fill-rule="nonzero"
       id="path407" />
    <path
       fill="#000000"
       fill-opacity="0"
       d="m 491.9369,233.02362 -1.04163,56.93765 34.19489,-69.00894 67.5957,17.62224"
       fill-rule="nonzero"
       id="path409" />
    <path
       stroke="#d156d7"
       stroke-width="16"
       stroke-linejoin="round"
       stroke-linecap="butt"
       d="m 491.9369,233.02362 -1.04163,56.93765 34.19489,-69.00894 67.5957,17.62224"
       fill-rule="nonzero"
       id="path411" />
    <path
       fill="#000000"
       fill-opacity="0"
       d="M 108.76563,28.574413 205.11209,38.810634 192.29318,158.81063 95.946731,148.57441 Z"
       fill-rule="nonzero"
       id="path413" />
    <path
       fill="#d156d7"
       d="m 139.28632,86.49178 q -3.72902,-0.396187 -7.06436,8.614365 -3.3198,9.012205 -4.33719,18.536145 -1.01572,9.5084 0.65831,14.43156 1.69122,4.90929 5.40471,5.30382 2.87445,0.30539 6.166,-6.82426 3.29155,-7.12965 4.28073,-16.38947 2.44305,-22.869883 -5.1082,-23.67216 z m -25.42748,27.53018 q 1.0788,-10.0988 4.5745,-19.139448 3.49736,-9.05619 9.38955,-14.935341 5.90772,-5.877495 13.02393,-5.121445 7.13173,0.757706 11.51488,6.062973 8.07692,10.003052 5.86123,30.744421 -0.96592,9.04231 -5.04403,17.0626 -4.07811,8.02028 -9.61563,12.49152 -5.53585,4.4557 -10.86522,3.88949 -10.20818,-1.08456 -15.22604,-9.56842 -5.00066,-8.49774 -3.61317,-21.48635 z"
       fill-rule="nonzero"
       id="path415" />
  </g>
  <metadata
     id="metadata419">
    <rdf:RDF>
      <cc:Work>
        <dc:format>image/svg+xml</dc:format>
        <dc:type
           rdf:resource="http://purl.org/dc/dcmitype/StillImage" />
        <cc:license
           rdf:resource="http://creativecommons.org/publicdomain/zero/1.0/" />
        <dc:publisher>
          <cc:Agent
             rdf:about="http://openclipart.org/">
            <dc:title>Openclipart</dc:title>
          </cc:Agent>
        </dc:publisher>
        <dc:title>Math Girl </dc:title>
        <dc:date>2014-02-27T13:33:28</dc:date>
        <dc:description>girl with pencil and calculator in a cloud of math symbols, drawn in comic style</dc:description>
        <dc:source>https://openclipart.org/detail/191351/math-girl--by-scout-191351</dc:source>
        <dc:creator>
          <cc:Agent>
            <dc:title>Scout</dc:title>
          </cc:Agent>
        </dc:creator>
        <dc:subject>
          <rdf:Bag>
            <rdf:li>equations</rdf:li>
            <rdf:li>girl</rdf:li>
            <rdf:li>homework</rdf:li>
            <rdf:li>math</rdf:li>
            <rdf:li>mathematics</rdf:li>
            <rdf:li>school</rdf:li>
            <rdf:li>school work</rdf:li>
            <rdf:li>student</rdf:li>
          </rdf:Bag>
        </dc:subject>
      </cc:Work>
      <cc:License
         rdf:about="http://creativecommons.org/publicdomain/zero/1.0/">
        <cc:permits
           rdf:resource="http://creativecommons.org/ns#Reproduction" />
        <cc:permits
           rdf:resource="http://creativecommons.org/ns#Distribution" />
        <cc:permits
           rdf:resource="http://creativecommons.org/ns#DerivativeWorks" />
      </cc:License>
    </rdf:RDF>
  </metadata>
</svg>
